<mxfile host="Electron" modified="2024-01-31T23:12:20.929Z" agent="Mozilla/5.0 (Windows NT 10.0; Win64; x64) AppleWebKit/537.36 (KHTML, like Gecko) draw.io/23.0.2 Chrome/120.0.6099.109 Electron/28.1.0 Safari/537.36" etag="wrtKN9q9aJv3B_7pC3eX" version="23.0.2" type="device">
  <diagram name="Page-1" id="EKH4ouBMmT7rw-T47lvT">
    <mxGraphModel dx="1434" dy="844" grid="1" gridSize="10" guides="1" tooltips="1" connect="1" arrows="1" fold="1" page="1" pageScale="1" pageWidth="850" pageHeight="1100" math="0" shadow="0">
      <root>
        <mxCell id="0" />
        <mxCell id="1" parent="0" />
        <mxCell id="DSmxuehfg6mSqZ2CfTV4-5" value="&amp;lt;&amp;lt;Abstract&amp;gt;&amp;gt;&lt;br&gt;LivingActor" style="swimlane;fontStyle=1;align=center;verticalAlign=top;childLayout=stackLayout;horizontal=1;startSize=39;horizontalStack=0;resizeParent=1;resizeParentMax=0;resizeLast=0;collapsible=1;marginBottom=0;whiteSpace=wrap;html=1;" parent="1" vertex="1">
          <mxGeometry x="280" y="21" width="280" height="240" as="geometry" />
        </mxCell>
        <mxCell id="DSmxuehfg6mSqZ2CfTV4-6" value="BoxCollider : BoxComponent&lt;br&gt;Health : float&lt;br&gt;EasyHealthModifier : float&lt;br&gt;HardHealthModifier : float" style="text;strokeColor=none;fillColor=none;align=left;verticalAlign=top;spacingLeft=4;spacingRight=4;overflow=hidden;rotatable=0;points=[[0,0.5],[1,0.5]];portConstraint=eastwest;whiteSpace=wrap;html=1;" parent="DSmxuehfg6mSqZ2CfTV4-5" vertex="1">
          <mxGeometry y="39" width="280" height="91" as="geometry" />
        </mxCell>
        <mxCell id="DSmxuehfg6mSqZ2CfTV4-7" value="" style="line;strokeWidth=1;fillColor=none;align=left;verticalAlign=middle;spacingTop=-1;spacingLeft=3;spacingRight=3;rotatable=0;labelPosition=right;points=[];portConstraint=eastwest;strokeColor=inherit;" parent="DSmxuehfg6mSqZ2CfTV4-5" vertex="1">
          <mxGeometry y="130" width="280" height="8" as="geometry" />
        </mxCell>
        <mxCell id="DSmxuehfg6mSqZ2CfTV4-8" value="&lt;strike&gt;LivingActor(USceneComponent)&lt;/strike&gt;&lt;br&gt;&lt;strike&gt;virtual OverlapBegin(...)&lt;/strike&gt;&lt;br&gt;virtual ApplyModifiers()&lt;br&gt;virtual OnDeath()&lt;br&gt;GetHealth() : Health&lt;br&gt;SetHealth(float)" style="text;strokeColor=none;fillColor=none;align=left;verticalAlign=top;spacingLeft=4;spacingRight=4;overflow=hidden;rotatable=0;points=[[0,0.5],[1,0.5]];portConstraint=eastwest;whiteSpace=wrap;html=1;" parent="DSmxuehfg6mSqZ2CfTV4-5" vertex="1">
          <mxGeometry y="138" width="280" height="102" as="geometry" />
        </mxCell>
        <mxCell id="DSmxuehfg6mSqZ2CfTV4-9" value="Player" style="swimlane;fontStyle=1;align=center;verticalAlign=top;childLayout=stackLayout;horizontal=1;startSize=26;horizontalStack=0;resizeParent=1;resizeParentMax=0;resizeLast=0;collapsible=1;marginBottom=0;whiteSpace=wrap;html=1;" parent="1" vertex="1">
          <mxGeometry x="80" y="390" width="200" height="150" as="geometry" />
        </mxCell>
        <mxCell id="DSmxuehfg6mSqZ2CfTV4-10" value="Look at player design" style="text;strokeColor=none;fillColor=none;align=left;verticalAlign=top;spacingLeft=4;spacingRight=4;overflow=hidden;rotatable=0;points=[[0,0.5],[1,0.5]];portConstraint=eastwest;whiteSpace=wrap;html=1;" parent="DSmxuehfg6mSqZ2CfTV4-9" vertex="1">
          <mxGeometry y="26" width="200" height="34" as="geometry" />
        </mxCell>
        <mxCell id="DSmxuehfg6mSqZ2CfTV4-11" value="" style="line;strokeWidth=1;fillColor=none;align=left;verticalAlign=middle;spacingTop=-1;spacingLeft=3;spacingRight=3;rotatable=0;labelPosition=right;points=[];portConstraint=eastwest;strokeColor=inherit;" parent="DSmxuehfg6mSqZ2CfTV4-9" vertex="1">
          <mxGeometry y="60" width="200" height="8" as="geometry" />
        </mxCell>
        <mxCell id="DSmxuehfg6mSqZ2CfTV4-12" value="Look at player design" style="text;strokeColor=none;fillColor=none;align=left;verticalAlign=top;spacingLeft=4;spacingRight=4;overflow=hidden;rotatable=0;points=[[0,0.5],[1,0.5]];portConstraint=eastwest;whiteSpace=wrap;html=1;" parent="DSmxuehfg6mSqZ2CfTV4-9" vertex="1">
          <mxGeometry y="68" width="200" height="30" as="geometry" />
        </mxCell>
        <mxCell id="DSmxuehfg6mSqZ2CfTV4-13" value="" style="line;strokeWidth=1;fillColor=none;align=left;verticalAlign=middle;spacingTop=-1;spacingLeft=3;spacingRight=3;rotatable=0;labelPosition=right;points=[];portConstraint=eastwest;strokeColor=inherit;" parent="DSmxuehfg6mSqZ2CfTV4-9" vertex="1">
          <mxGeometry y="98" width="200" height="8" as="geometry" />
        </mxCell>
        <mxCell id="DSmxuehfg6mSqZ2CfTV4-14" value="&lt;b&gt;Blueprint Implementation&lt;/b&gt;&lt;br&gt;Look at player design" style="text;strokeColor=none;fillColor=none;align=left;verticalAlign=top;spacingLeft=4;spacingRight=4;overflow=hidden;rotatable=0;points=[[0,0.5],[1,0.5]];portConstraint=eastwest;whiteSpace=wrap;html=1;" parent="DSmxuehfg6mSqZ2CfTV4-9" vertex="1">
          <mxGeometry y="106" width="200" height="44" as="geometry" />
        </mxCell>
        <mxCell id="DSmxuehfg6mSqZ2CfTV4-21" style="edgeStyle=orthogonalEdgeStyle;rounded=0;orthogonalLoop=1;jettySize=auto;html=1;entryX=0.002;entryY=0.399;entryDx=0;entryDy=0;entryPerimeter=0;" parent="1" source="DSmxuehfg6mSqZ2CfTV4-9" target="DSmxuehfg6mSqZ2CfTV4-7" edge="1">
          <mxGeometry relative="1" as="geometry" />
        </mxCell>
        <mxCell id="DSmxuehfg6mSqZ2CfTV4-28" style="edgeStyle=orthogonalEdgeStyle;rounded=0;orthogonalLoop=1;jettySize=auto;html=1;endArrow=block;endFill=1;strokeColor=#ffffff;" parent="1" target="DSmxuehfg6mSqZ2CfTV4-7" edge="1">
          <mxGeometry relative="1" as="geometry">
            <mxPoint x="650" y="390" as="sourcePoint" />
          </mxGeometry>
        </mxCell>
        <mxCell id="DSmxuehfg6mSqZ2CfTV4-30" value="A little inheriting" style="text;html=1;align=center;verticalAlign=middle;resizable=0;points=[];autosize=1;strokeColor=none;fillColor=none;" parent="1" vertex="1">
          <mxGeometry x="70" y="170" width="110" height="30" as="geometry" />
        </mxCell>
        <mxCell id="DSmxuehfg6mSqZ2CfTV4-31" value="A little inheriting" style="text;html=1;align=center;verticalAlign=middle;resizable=0;points=[];autosize=1;strokeColor=none;fillColor=none;" parent="1" vertex="1">
          <mxGeometry x="650" y="170" width="110" height="30" as="geometry" />
        </mxCell>
        <mxCell id="DSmxuehfg6mSqZ2CfTV4-32" value="" style="endArrow=none;html=1;rounded=0;" parent="1" edge="1">
          <mxGeometry width="50" height="50" relative="1" as="geometry">
            <mxPoint x="160" y="90" as="sourcePoint" />
            <mxPoint x="280" y="90" as="targetPoint" />
          </mxGeometry>
        </mxCell>
        <mxCell id="3FUEns-dPBj-UqEda8dc-1" value="Global Variables" style="swimlane;fontStyle=0;childLayout=stackLayout;horizontal=1;startSize=26;fillColor=none;horizontalStack=0;resizeParent=1;resizeParentMax=0;resizeLast=0;collapsible=1;marginBottom=0;whiteSpace=wrap;html=1;" parent="1" vertex="1">
          <mxGeometry x="20" y="21" width="140" height="130" as="geometry" />
        </mxCell>
        <mxCell id="3FUEns-dPBj-UqEda8dc-2" value="Easy&lt;br&gt;" style="text;strokeColor=none;fillColor=none;align=left;verticalAlign=top;spacingLeft=4;spacingRight=4;overflow=hidden;rotatable=0;points=[[0,0.5],[1,0.5]];portConstraint=eastwest;whiteSpace=wrap;html=1;" parent="3FUEns-dPBj-UqEda8dc-1" vertex="1">
          <mxGeometry y="26" width="140" height="26" as="geometry" />
        </mxCell>
        <mxCell id="3FUEns-dPBj-UqEda8dc-3" value="Normal&lt;span style=&quot;white-space: pre;&quot;&gt;&#x9;&lt;/span&gt;" style="text;strokeColor=none;fillColor=none;align=left;verticalAlign=top;spacingLeft=4;spacingRight=4;overflow=hidden;rotatable=0;points=[[0,0.5],[1,0.5]];portConstraint=eastwest;whiteSpace=wrap;html=1;" parent="3FUEns-dPBj-UqEda8dc-1" vertex="1">
          <mxGeometry y="52" width="140" height="26" as="geometry" />
        </mxCell>
        <mxCell id="3FUEns-dPBj-UqEda8dc-4" value="Hard&lt;br&gt;&lt;br&gt;..." style="text;strokeColor=none;fillColor=none;align=left;verticalAlign=top;spacingLeft=4;spacingRight=4;overflow=hidden;rotatable=0;points=[[0,0.5],[1,0.5]];portConstraint=eastwest;whiteSpace=wrap;html=1;" parent="3FUEns-dPBj-UqEda8dc-1" vertex="1">
          <mxGeometry y="78" width="140" height="52" as="geometry" />
        </mxCell>
        <mxCell id="3FUEns-dPBj-UqEda8dc-5" value="Should know" style="text;html=1;strokeColor=none;fillColor=none;align=center;verticalAlign=middle;whiteSpace=wrap;rounded=0;" parent="1" vertex="1">
          <mxGeometry x="190" y="50" width="60" height="30" as="geometry" />
        </mxCell>
        <mxCell id="0NiOdx1bSxAbVccs_nox-2" style="edgeStyle=orthogonalEdgeStyle;rounded=0;orthogonalLoop=1;jettySize=auto;html=1;entryX=0.006;entryY=0.133;entryDx=0;entryDy=0;entryPerimeter=0;exitX=0;exitY=0.5;exitDx=0;exitDy=0;exitPerimeter=0;fillColor=#1ba1e2;strokeColor=#006EAF;" parent="1" source="0NiOdx1bSxAbVccs_nox-3" target="DSmxuehfg6mSqZ2CfTV4-8" edge="1">
          <mxGeometry relative="1" as="geometry">
            <mxPoint x="270" y="360" as="sourcePoint" />
            <Array as="points">
              <mxPoint x="240" y="360" />
              <mxPoint x="240" y="170" />
              <mxPoint x="270" y="170" />
              <mxPoint x="270" y="173" />
            </Array>
          </mxGeometry>
        </mxCell>
        <mxCell id="0NiOdx1bSxAbVccs_nox-3" value="The constructor will handle the RootComponent" style="shape=note;size=20;whiteSpace=wrap;html=1;strokeColor=#3333FF;" parent="1" vertex="1">
          <mxGeometry x="290" y="320" width="100" height="80" as="geometry" />
        </mxCell>
        <mxCell id="0NiOdx1bSxAbVccs_nox-5" value="Enemy" style="swimlane;fontStyle=1;align=center;verticalAlign=top;childLayout=stackLayout;horizontal=1;startSize=26;horizontalStack=0;resizeParent=1;resizeParentMax=0;resizeLast=0;collapsible=1;marginBottom=0;whiteSpace=wrap;html=1;" parent="1" vertex="1">
          <mxGeometry x="540" y="390" width="190" height="140" as="geometry" />
        </mxCell>
        <mxCell id="0NiOdx1bSxAbVccs_nox-6" value="Look at Enemy design" style="text;strokeColor=none;fillColor=none;align=left;verticalAlign=top;spacingLeft=4;spacingRight=4;overflow=hidden;rotatable=0;points=[[0,0.5],[1,0.5]];portConstraint=eastwest;whiteSpace=wrap;html=1;" parent="0NiOdx1bSxAbVccs_nox-5" vertex="1">
          <mxGeometry y="26" width="190" height="24" as="geometry" />
        </mxCell>
        <mxCell id="0NiOdx1bSxAbVccs_nox-7" value="" style="line;strokeWidth=1;fillColor=none;align=left;verticalAlign=middle;spacingTop=-1;spacingLeft=3;spacingRight=3;rotatable=0;labelPosition=right;points=[];portConstraint=eastwest;strokeColor=inherit;" parent="0NiOdx1bSxAbVccs_nox-5" vertex="1">
          <mxGeometry y="50" width="190" height="8" as="geometry" />
        </mxCell>
        <mxCell id="0NiOdx1bSxAbVccs_nox-8" value="Look at Enemy design" style="text;strokeColor=none;fillColor=none;align=left;verticalAlign=top;spacingLeft=4;spacingRight=4;overflow=hidden;rotatable=0;points=[[0,0.5],[1,0.5]];portConstraint=eastwest;whiteSpace=wrap;html=1;" parent="0NiOdx1bSxAbVccs_nox-5" vertex="1">
          <mxGeometry y="58" width="190" height="32" as="geometry" />
        </mxCell>
        <mxCell id="0NiOdx1bSxAbVccs_nox-9" value="" style="line;strokeWidth=1;fillColor=none;align=left;verticalAlign=middle;spacingTop=-1;spacingLeft=3;spacingRight=3;rotatable=0;labelPosition=right;points=[];portConstraint=eastwest;strokeColor=inherit;" parent="0NiOdx1bSxAbVccs_nox-5" vertex="1">
          <mxGeometry y="90" width="190" height="8" as="geometry" />
        </mxCell>
        <mxCell id="0NiOdx1bSxAbVccs_nox-10" value="&lt;b&gt;Blueprint Implementation&lt;/b&gt;&lt;br&gt;Look at Enemy design" style="text;strokeColor=none;fillColor=none;align=left;verticalAlign=top;spacingLeft=4;spacingRight=4;overflow=hidden;rotatable=0;points=[[0,0.5],[1,0.5]];portConstraint=eastwest;whiteSpace=wrap;html=1;" parent="0NiOdx1bSxAbVccs_nox-5" vertex="1">
          <mxGeometry y="98" width="190" height="42" as="geometry" />
        </mxCell>
        <mxCell id="bIGJUcOt6Nt_02Kn3jwI-12" value="" style="edgeStyle=orthogonalEdgeStyle;rounded=0;orthogonalLoop=1;jettySize=auto;html=1;fillColor=#1ba1e2;strokeColor=#006EAF;" parent="1" source="bIGJUcOt6Nt_02Kn3jwI-10" target="0NiOdx1bSxAbVccs_nox-3" edge="1">
          <mxGeometry relative="1" as="geometry" />
        </mxCell>
        <mxCell id="bIGJUcOt6Nt_02Kn3jwI-10" value="Change of plans, constructor is handled in derived classes" style="shape=note;size=20;whiteSpace=wrap;html=1;strokeColor=#3333FF;" parent="1" vertex="1">
          <mxGeometry x="290" y="420" width="100" height="80" as="geometry" />
        </mxCell>
        <mxCell id="kfhoVM4M7yKdYirzPhuy-6" value="" style="edgeStyle=orthogonalEdgeStyle;rounded=0;orthogonalLoop=1;jettySize=auto;html=1;entryX=0.46;entryY=1.018;entryDx=0;entryDy=0;entryPerimeter=0;" parent="1" source="kfhoVM4M7yKdYirzPhuy-5" target="DSmxuehfg6mSqZ2CfTV4-14" edge="1">
          <mxGeometry relative="1" as="geometry">
            <mxPoint x="230" y="745" as="targetPoint" />
          </mxGeometry>
        </mxCell>
        <mxCell id="kfhoVM4M7yKdYirzPhuy-5" value="Player is in place of Castle now" style="shape=note;size=20;whiteSpace=wrap;html=1;strokeColor=#3333FF;" parent="1" vertex="1">
          <mxGeometry x="110" y="600" width="110" height="70" as="geometry" />
        </mxCell>
      </root>
    </mxGraphModel>
  </diagram>
</mxfile>
